PLOT
19-year-old Alice returns to the magical world from her childhood adventure, where she reunites with her old friends and learns of her true destiny: to end the Red Queen's reign of terror.

Runtime.......:1h 40mn
Video
ID : 0
Format : MPEG-4 Visual
Format profile : Advanced Simple@L5
Format settings, BVOP : Yes
Format settings, QPel : No
Format settings, GMC : No warppoints
Format settings, Matrix : Default (MPEG)
Muxing mode : Packed bitstream
Codec ID : XVID
Codec ID/Hint : XviD
Duration : 1h 40mn
Bit rate : 1 863 Kbps
Width : 704 pixels
Height : 368 pixels
Display aspect ratio : 1.913
Frame rate : 23.976 fps
Resolution : 24 bits
Colorimetry : 4:2:0
Scan type : Progressive
Bits/(Pixel*Frame) : 0.300
Stream size : 1.31 GiB (93%)
Writing library : XviD 1.2.1 (UTC 2008-12-04)
Audio
ID : 1
Format : MPEG Audio
Format version : Version 1
Format profile : Layer 3
Codec ID : 55
Codec ID/Hint : MP3
Duration : 1h 40mn
Bit rate mode : Constant
Bit rate : 128 Kbps
Channel(s) : 2 channels
Sampling rate : 48.0 KHz
Resolution : 16 bits
Stream size : 91.8 MiB (6%)
Alignment : Split accross interleaves
Interleave, duration : 42 ms (1.00 video frame)
Interleave, preload duration : 500 ms
 
http://img227.imageshack.us/img227/2417/7jdnijni.png 
http://img443.imageshack.us/img443/2462/fqbpccil.png 
http://img33.imageshack.us/img33/5131/pyt7hgcx.png
 
http://img20.imageshack.us/img20/8581/aliceinwonderlandcaps.jpg

NOTES:

BEFORE DOWNLOADING ANY FILE PLEASE RUN YOUR ANTI VIRUS FIRST SO THAT YOU CAN BE SURE THAT YOUR COMPUTER IS SAFE.. 

THANKS FOR SUBSCRIBING AND ENJOY............

SAMPLE IS INCLUDED :)